REM DIRINDEX 1\5,1\2\6,1\2\7,1\3\8,1\3\9,1\3\10,1\3\11,1\4\12,1\4\13,1\4\14
REM DIRNAME cjc042,folder01,folder02,folder03,folder04,folder05,folder06,folder07,folder08,folder09,folder10,folder11,folder12,folder13
TITLE ""
FILE "4Q_h_175-184.mp3" MP3
  TRACK 01 AUDIO
    TITLE "12:cjc042_0533"
    INDEX 01 00:00:00
  TRACK 02 AUDIO
    TITLE "0:"
    INDEX 01 00:02:32
  TRACK 03 AUDIO
    TITLE "13:cjc042_0534"
    INDEX 01 00:03:06
  TRACK 04 AUDIO
    TITLE "0:"
    INDEX 01 00:05:50
  TRACK 05 AUDIO
    TITLE "14:cjc042_0535"
    INDEX 01 00:06:20
  TRACK 06 AUDIO
    TITLE "0:"
    INDEX 01 00:08:17
  TRACK 07 AUDIO
    TITLE "12:cjc042_0536"
    INDEX 01 00:09:00
  TRACK 08 AUDIO
    TITLE "0:"
    INDEX 01 00:11:17
  TRACK 09 AUDIO
    TITLE "13:cjc042_0537"
    INDEX 01 00:11:74
  TRACK 10 AUDIO
    TITLE "0:"
    INDEX 01 00:14:17
  TRACK 11 AUDIO
    TITLE "14:cjc042_0538"
    INDEX 01 00:14:72
  TRACK 12 AUDIO
    TITLE "0:"
    INDEX 01 00:16:61
  TRACK 13 AUDIO
    TITLE "12:cjc042_0539"
    INDEX 01 00:17:31
  TRACK 14 AUDIO
    TITLE "0:"
    INDEX 01 00:19:46
  TRACK 15 AUDIO
    TITLE "13:cjc042_0540"
    INDEX 01 00:20:22
  TRACK 16 AUDIO
    TITLE "0:"
    INDEX 01 00:22:38
  TRACK 17 AUDIO
    TITLE "14:cjc042_0541"
    INDEX 01 00:23:16
  TRACK 18 AUDIO
    TITLE "0:"
    INDEX 01 00:25:35
  TRACK 19 AUDIO
    TITLE "12:cjc042_0542"
    INDEX 01 00:26:13
  TRACK 20 AUDIO
    TITLE "0:"
    INDEX 01 00:28:17
  TRACK 21 AUDIO
    TITLE "13:cjc042_0543"
    INDEX 01 00:28:70
  TRACK 22 AUDIO
    TITLE "0:"
    INDEX 01 00:31:00
  TRACK 23 AUDIO
    TITLE "14:cjc042_0544"
    INDEX 01 00:31:53
  TRACK 24 AUDIO
    TITLE "0:"
    INDEX 01 00:34:02
  TRACK 25 AUDIO
    TITLE "12:cjc042_0545"
    INDEX 01 00:34:55
  TRACK 26 AUDIO
    TITLE "0:"
    INDEX 01 00:37:18
  TRACK 27 AUDIO
    TITLE "13:cjc042_0546"
    INDEX 01 00:37:71
  TRACK 28 AUDIO
    TITLE "0:"
    INDEX 01 00:40:34
  TRACK 29 AUDIO
    TITLE "14:cjc042_0547"
    INDEX 01 00:41:12
  TRACK 30 AUDIO
    TITLE "0:"
    INDEX 01 00:43:44
  TRACK 31 AUDIO
    TITLE "12:cjc042_0548"
    INDEX 01 00:44:16
  TRACK 32 AUDIO
    TITLE "0:"
    INDEX 01 00:46:27
  TRACK 33 AUDIO
    TITLE "13:cjc042_0549"
    INDEX 01 00:47:03
  TRACK 34 AUDIO
    TITLE "0:"
    INDEX 01 00:49:14
  TRACK 35 AUDIO
    TITLE "14:cjc042_0550"
    INDEX 01 00:49:69
  TRACK 36 AUDIO
    TITLE "0:"
    INDEX 01 00:51:63
  TRACK 37 AUDIO
    TITLE "12:cjc042_0551"
    INDEX 01 00:52:45
  TRACK 38 AUDIO
    TITLE "0:"
    INDEX 01 00:56:25
  TRACK 39 AUDIO
    TITLE "13:cjc042_0552"
    INDEX 01 00:57:05
  TRACK 40 AUDIO
    TITLE "0:"
    INDEX 01 01:00:62
  TRACK 41 AUDIO
    TITLE "14:cjc042_0553"
    INDEX 01 01:01:40
  TRACK 42 AUDIO
    TITLE "0:"
    INDEX 01 01:05:26
  TRACK 43 AUDIO
    TITLE "12:cjc042_0554"
    INDEX 01 01:06:02
  TRACK 44 AUDIO
    TITLE "0:"
    INDEX 01 01:07:63
  TRACK 45 AUDIO
    TITLE "13:cjc042_0555"
    INDEX 01 01:08:42
  TRACK 46 AUDIO
    TITLE "0:"
    INDEX 01 01:10:26
  TRACK 47 AUDIO
    TITLE "14:cjc042_0556"
    INDEX 01 01:11:07
  TRACK 48 AUDIO
    TITLE "0:"
    INDEX 01 01:13:16
  TRACK 49 AUDIO
    TITLE "12:cjc042_0557"
    INDEX 01 01:13:73
  TRACK 50 AUDIO
    TITLE "0:"
    INDEX 01 01:16:60
  TRACK 51 AUDIO
    TITLE "13:cjc042_0558"
    INDEX 01 01:17:32
  TRACK 52 AUDIO
    TITLE "0:"
    INDEX 01 01:20:18
  TRACK 53 AUDIO
    TITLE "14:cjc042_0559"
    INDEX 01 01:20:63
  TRACK 54 AUDIO
    TITLE "0:"
    INDEX 01 01:24:12
  TRACK 55 AUDIO
    TITLE "12:cjc042_0560"
    INDEX 01 01:24:63
  TRACK 56 AUDIO
    TITLE "0:"
    INDEX 01 01:26:56
  TRACK 57 AUDIO
    TITLE "13:cjc042_0561"
    INDEX 01 01:27:30
  TRACK 58 AUDIO
    TITLE "0:"
    INDEX 01 01:29:23
  TRACK 59 AUDIO
    TITLE "14:cjc042_0562"
    INDEX 01 01:29:74
  TRACK 60 AUDIO
    TITLE "0:"
    INDEX 01 01:32:04
